<svg xmlns="http://www.w3.org/2000/svg" version="1.1" xmlns:xlink="http://www.w3.org/1999/xlink" xmlns:svgjs="http://svgjs.dev/svgjs" width="1000" height="98" viewBox="0 0 1000 98"><g transform="matrix(1,0,0,1,-0.6060606060606233,0.16546587530154966)"><svg viewBox="0 0 396 39" data-background-color="#161618" preserveAspectRatio="xMidYMid meet" height="98" width="1000" xmlns="http://www.w3.org/2000/svg" xmlns:xlink="http://www.w3.org/1999/xlink"><g id="tight-bounds" transform="matrix(1,0,0,1,0.2400000000000091,-0.06584866466081962)"><svg viewBox="0 0 395.52 39.13169659215829" height="39.13169659215829" width="395.52"><g><svg viewBox="0 0 395.52 39.13169659215829" height="39.13169659215829" width="395.52"><g><svg viewBox="0 0 395.52 39.13169659215829" height="39.13169659215829" width="395.52"><g><svg viewBox="0 0 395.52 39.13169659215829" height="39.13169659215829" width="395.52"><g><svg viewBox="0 0 395.52 39.13169659215829" height="39.13169659215829" width="395.52"><g transform="matrix(1,0,0,1,0,0)"><svg width="395.52" viewBox="4.75 -39.45000076293945 409.32000732421875 40.5" height="39.13169659215829" data-palette-color="#ffffff"><path d="M4.75-36.8L15.9-36.8Q19.35-36.8 22.05-35.93 24.75-35.05 26.58-33.43 28.4-31.8 29.35-29.53 30.3-27.25 30.3-24.4L30.3-24.4Q30.3-22.15 29.63-19.9 28.95-17.65 27.43-15.8 25.9-13.95 23.4-12.83 20.9-11.7 17.2-11.7L17.2-11.7 12-11.7 12 0 4.75 0 4.75-36.8ZM12-18.7L17.15-18.7Q18.8-18.7 19.9-19.25 21-19.8 21.63-20.65 22.25-21.5 22.53-22.43 22.8-23.35 22.8-24.15L22.8-24.15Q22.8-24.75 22.63-25.68 22.45-26.6 21.9-27.55 21.35-28.5 20.23-29.15 19.1-29.8 17.2-29.8L17.2-29.8 12-29.8 12-18.7ZM15.3-14L23.95-14.2 33.05 0 24.6 0 15.3-14ZM47.65 0.6L47.65 0.6Q43.65 0.6 40.87-0.9 38.1-2.4 36.65-5.05 35.2-7.7 35.2-11.15L35.2-11.15Q35.2-14.45 36.9-17.1 38.6-19.75 41.45-21.33 44.3-22.9 47.8-22.9L47.8-22.9Q52.5-22.9 55.52-20.18 58.55-17.45 59.45-12.3L59.45-12.3 42.45-6.9 40.9-10.7 53.2-14.85 51.75-14.2Q51.35-15.5 50.32-16.48 49.3-17.45 47.25-17.45L47.25-17.45Q45.7-17.45 44.52-16.73 43.35-16 42.72-14.68 42.1-13.35 42.1-11.55L42.1-11.55Q42.1-9.5 42.85-8.13 43.6-6.75 44.9-6.05 46.2-5.35 47.8-5.35L47.8-5.35Q48.95-5.35 50.02-5.75 51.1-6.15 52.15-6.8L52.15-6.8 55.25-1.6Q53.5-0.6 51.47 0 49.45 0.6 47.65 0.6ZM71.65 0.45L71.65 0.45Q68.95 0.45 66.62-0.5 64.3-1.45 62.7-3.15L62.7-3.15 65.6-7Q67.2-5.55 68.57-4.93 69.95-4.3 71.05-4.3L71.05-4.3Q71.9-4.3 72.57-4.48 73.25-4.65 73.65-5.03 74.05-5.4 74.05-6L74.05-6Q74.05-6.85 73.37-7.35 72.7-7.85 71.65-8.18 70.6-8.5 69.4-8.85L69.4-8.85Q66.4-9.8 65.07-11.63 63.75-13.45 63.75-15.6L63.75-15.6Q63.75-17.25 64.62-18.93 65.5-20.6 67.42-21.73 69.35-22.85 72.4-22.85L72.4-22.85Q75.15-22.85 77.05-22.3 78.95-21.75 80.65-20.5L80.65-20.5 78-16.4Q77.05-17.15 75.87-17.68 74.7-18.2 73.7-18.25L73.7-18.25Q72.8-18.3 72.17-18.05 71.55-17.8 71.2-17.4 70.85-17 70.85-16.55L70.85-16.55Q70.8-15.6 71.57-15.05 72.35-14.5 73.55-14.2 74.75-13.9 75.9-13.5L75.9-13.5Q77.5-13 78.65-12.15 79.8-11.3 80.42-10.13 81.05-8.95 81.05-7.3L81.05-7.3Q81.05-5.3 80.02-3.53 79-1.75 76.92-0.65 74.85 0.45 71.65 0.45ZM93.94 1.05L93.94 1.05Q90.99 1.05 88.99-0.78 86.99-2.6 86.89-5.5L86.89-5.5 86.89-21.85 93.89-21.85 93.89-8.1Q93.99-6.65 94.64-5.78 95.29-4.9 96.84-4.9L96.84-4.9Q98.39-4.9 99.52-5.95 100.64-7 101.27-8.83 101.89-10.65 101.89-12.95L101.89-12.95 101.89-21.85 108.89-21.85 108.89 0 102.54 0 101.99-4 102.09-3.55Q101.34-2.2 100.19-1.15 99.04-0.1 97.47 0.48 95.89 1.05 93.94 1.05ZM116.09-21.85L122.44-21.85 122.99-18 122.89-18.3Q124.19-20.5 126.14-21.73 128.09-22.95 130.84-22.95L130.84-22.95Q132.64-22.95 134.02-22.45 135.39-21.95 136.34-20.98 137.29-20 137.64-18.45L137.64-18.45 137.39-18.4Q138.79-20.45 140.77-21.7 142.74-22.95 144.89-22.95L144.89-22.95Q148.14-22.95 150.07-21.13 151.99-19.3 152.04-16.4L152.04-16.4 152.04 0 145.09 0 145.09-13.5Q145.04-14.95 144.64-15.88 144.24-16.8 142.79-16.9L142.79-16.9Q141.09-16.9 139.92-15.73 138.74-14.55 138.17-12.73 137.59-10.9 137.59-8.95L137.59-8.95 137.59 0 130.59 0 130.59-13.5Q130.54-14.95 130.07-15.88 129.59-16.8 128.14-16.9L128.14-16.9Q126.49-16.9 125.37-15.73 124.24-14.55 123.67-12.75 123.09-10.95 123.09-9.05L123.09-9.05 123.09 0 116.09 0 116.09-21.85ZM169.99 0.6L169.99 0.6Q165.99 0.6 163.21-0.9 160.44-2.4 158.99-5.05 157.54-7.7 157.54-11.15L157.54-11.15Q157.54-14.45 159.24-17.1 160.94-19.75 163.79-21.33 166.64-22.9 170.14-22.9L170.14-22.9Q174.84-22.9 177.86-20.18 180.89-17.45 181.79-12.3L181.79-12.3 164.79-6.9 163.24-10.7 175.54-14.85 174.09-14.2Q173.69-15.5 172.66-16.48 171.64-17.45 169.59-17.45L169.59-17.45Q168.04-17.45 166.86-16.73 165.69-16 165.06-14.68 164.44-13.35 164.44-11.55L164.44-11.55Q164.44-9.5 165.19-8.13 165.94-6.75 167.24-6.05 168.54-5.35 170.14-5.35L170.14-5.35Q171.29-5.35 172.36-5.75 173.44-6.15 174.49-6.8L174.49-6.8 177.59-1.6Q175.84-0.6 173.81 0 171.79 0.6 169.99 0.6ZM188.04 0L188.04-36.8 213.14-36.8 213.14-29.8 195.29-29.8 195.29-21.95 211.09-21.95 211.09-14.95 195.29-14.95 195.29-7 213.84-7 213.84 0 188.04 0ZM230.38 0.45L230.18 0.45 217.08-21.85 225.38-21.85 232.83-6.75 228.53-6.9 234.98-21.85 242.78-21.85 230.38 0.45ZM255.08 0.6L255.08 0.6Q252.03 0.6 249.56-0.63 247.08-1.85 245.63-4.4 244.18-6.95 244.18-10.9L244.18-10.9Q244.18-14.6 245.68-17.3 247.18-20 249.63-21.48 252.08-22.95 254.83-22.95L254.83-22.95Q258.08-22.95 259.76-21.88 261.43-20.8 262.53-19.5L262.53-19.5 262.23-18.65 262.88-21.85 269.38-21.85 269.38 0 262.38 0 262.38-4.75 262.93-3.25Q262.83-3.25 262.33-2.68 261.83-2.1 260.86-1.33 259.88-0.55 258.46 0.03 257.03 0.6 255.08 0.6ZM257.08-5.1L257.08-5.1Q258.33-5.1 259.33-5.48 260.33-5.85 261.08-6.58 261.83-7.3 262.38-8.4L262.38-8.4 262.38-13.75Q261.98-14.85 261.18-15.63 260.38-16.4 259.28-16.82 258.18-17.25 256.83-17.25L256.83-17.25Q255.33-17.25 254.06-16.48 252.78-15.7 252.03-14.35 251.28-13 251.28-11.25L251.28-11.25Q251.28-9.5 252.08-8.1 252.88-6.7 254.21-5.9 255.53-5.1 257.08-5.1ZM276.58 0L276.58-39.45 283.58-39.45 283.58 0 276.58 0ZM297.83 1.05L297.83 1.05Q294.88 1.05 292.88-0.78 290.88-2.6 290.78-5.5L290.78-5.5 290.78-21.85 297.78-21.85 297.78-8.1Q297.88-6.65 298.53-5.78 299.18-4.9 300.73-4.9L300.73-4.9Q302.28-4.9 303.4-5.95 304.53-7 305.15-8.83 305.78-10.65 305.78-12.95L305.78-12.95 305.78-21.85 312.78-21.85 312.78 0 306.43 0 305.88-4 305.98-3.55Q305.23-2.2 304.08-1.15 302.93-0.1 301.35 0.48 299.78 1.05 297.83 1.05ZM329.17 0.6L329.17 0.6Q326.12 0.6 323.65-0.63 321.17-1.85 319.72-4.4 318.27-6.95 318.27-10.9L318.27-10.9Q318.27-14.6 319.77-17.3 321.27-20 323.72-21.48 326.17-22.95 328.92-22.95L328.92-22.95Q332.17-22.95 333.85-21.88 335.52-20.8 336.62-19.5L336.62-19.5 336.32-18.65 336.97-21.85 343.47-21.85 343.47 0 336.47 0 336.47-4.75 337.02-3.25Q336.92-3.25 336.42-2.68 335.92-2.1 334.95-1.33 333.97-0.55 332.55 0.03 331.12 0.6 329.17 0.6ZM331.17-5.1L331.17-5.1Q332.42-5.1 333.42-5.48 334.42-5.85 335.17-6.58 335.92-7.3 336.47-8.4L336.47-8.4 336.47-13.75Q336.07-14.85 335.27-15.63 334.47-16.4 333.37-16.82 332.27-17.25 330.92-17.25L330.92-17.25Q329.42-17.25 328.15-16.48 326.87-15.7 326.12-14.35 325.37-13 325.37-11.25L325.37-11.25Q325.37-9.5 326.17-8.1 326.97-6.7 328.3-5.9 329.62-5.1 331.17-5.1ZM352.72-21.95L352.72-31.45 359.72-31.45 359.72-21.95 365.02-21.95 365.02-16.5 359.72-16.5 359.72 0 352.72 0 352.72-16.5 349.32-16.5 349.32-21.95 352.72-21.95ZM368.67-11.2L368.67-11.2Q368.67-14.55 370.24-17.2 371.82-19.85 374.67-21.38 377.52-22.9 381.22-22.9L381.22-22.9Q384.97-22.9 387.72-21.38 390.47-19.85 391.94-17.2 393.42-14.55 393.42-11.2L393.42-11.2Q393.42-7.85 391.94-5.18 390.47-2.5 387.72-0.95 384.97 0.6 381.12 0.6L381.12 0.6Q377.52 0.6 374.69-0.8 371.87-2.2 370.27-4.85 368.67-7.5 368.67-11.2ZM375.72-11.15L375.72-11.15Q375.72-9.45 376.42-8.08 377.12-6.7 378.32-5.9 379.52-5.1 381.02-5.1L381.02-5.1Q382.67-5.1 383.87-5.9 385.07-6.7 385.72-8.08 386.37-9.45 386.37-11.15L386.37-11.15Q386.37-12.9 385.72-14.25 385.07-15.6 383.87-16.4 382.67-17.2 381.02-17.2L381.02-17.2Q379.52-17.2 378.32-16.4 377.12-15.6 376.42-14.25 375.72-12.9 375.72-11.15ZM398.92-21.85L405.22-21.85 405.87-15.85 405.72-16.75Q406.67-18.7 408.32-20.08 409.97-21.45 411.59-22.2 413.22-22.95 414.07-22.95L414.07-22.95 413.72-15.95Q411.27-16.25 409.52-15.15 407.77-14.05 406.82-12.25 405.87-10.45 405.87-8.55L405.87-8.55 405.87 0 398.92 0 398.92-21.85Z" opacity="1" transform="matrix(1,0,0,1,0,0)" fill="#ffffff" class="undefined-text-0" data-fill-palette-color="primary" id="text-0"></path></svg></g></svg></g></svg></g></svg></g></svg></g><defs></defs></svg><rect width="395.52" height="39.13169659215829" fill="none" stroke="none" visibility="hidden"></rect></g></svg></g></svg>